<svg width="375" height="812" viewBox="0 0 375 812" fill="none" xmlns="http://www.w3.org/2000/svg">
<path d="M-500.956 -67.3699C-167.16 -77.7738 167.005 -80.356 500.915 -87C500.432 268.355 500.432 623.711 500.915 979.066C166.948 978.704 -167.018 979.474 -500.956 979.066C-500.776 630.224 -500.776 281.412 -500.956 -67.3699Z" stroke="#E2E2E2" stroke-miterlimit="10"/>
<path d="M-500.984 788.73C-451.727 780.652 -422.494 747.432 -386.45 714.015C-361.162 690.61 -324.265 660.682 -288.788 674.755C-231.174 697.677 -190.616 777.209 -155.494 826.405C-126.517 867.009 -88.5845 931.819 -36.6888 939.293C14.5117 946.662 76.2701 927.696 126.704 919.406C187.725 909.365 248.972 897.436 310.631 892.377C351.628 889.01 378.435 884.359 408.051 852.166C437.667 819.972 456.3 792.128 500.916 785.182" stroke="#E2E2E2" stroke-miterlimit="10"/>
<path d="M-500.984 693.615C-449.145 684.343 -425.545 641.988 -394.042 601.897C-372.386 574.339 -337.605 537.722 -300.297 553.667C-271.405 566.034 -249.891 600.764 -232.777 626.435C-208.327 663.128 -187.111 702.162 -164.747 740.274C-137.969 785.876 -100.704 868.474 -44.3944 876.945C9.85703 885.099 76.8802 861.845 129.84 851.516C195.544 838.591 261.673 822.63 328.384 816.786C370.956 813.041 395.379 808.964 419.602 768.783C442.904 730.142 453.93 696.303 500.944 688.254" stroke="#E2E2E2" stroke-miterlimit="10"/>
<path d="M-500.984 598.498C-452.919 593.213 -418.393 567.543 -377.963 541.873C-348.659 523.315 -310.046 502.054 -274.881 512.82C-219.779 529.717 -178.725 600.023 -143.602 643.617C-113.532 680.945 -76.4798 734.082 -26.5707 738.235C23.3383 742.387 79.0514 721.338 126.69 708.774C182.871 693.946 239.549 675.796 297.278 669.167C335.82 664.757 365.394 662.462 398.628 639.208C432.97 615.139 458.485 595.222 500.987 591.326" stroke="#E2E2E2" stroke-miterlimit="10"/>
<path d="M-500.956 503.43C-414.591 504.94 -329.503 478.304 -243.052 484.963C-154.289 491.788 -96.4896 593.382 -4.7744 590.029C87.7922 586.647 169.574 525.265 260.395 511.297C297.717 505.559 336.188 508.383 373.921 503.823C416.494 498.674 458.073 493.661 501 494.416" stroke="#E2E2E2" stroke-miterlimit="10"/>
<path d="M-500.956 408.253C-452.608 407 -404.373 408.359 -356.039 409.688C-318.164 410.73 -279.409 407.604 -241.761 411.802C-155.765 421.42 -72.3937 468.654 14.525 468.578C99.4712 468.578 179.734 414.444 263.091 401.005C340.232 388.548 422.979 398.831 500.886 397.547" stroke="#E2E2E2" stroke-miterlimit="10"/>
<path d="M-500.972 313.138C-424.03 314.874 -352.537 351.945 -275.154 346.584C-146.358 337.66 -21.5645 289.793 107.402 283.934C182.386 280.521 257.696 286.954 332.681 287.679C389.557 288.253 444.376 300.303 500.941 300.62" stroke="#E2E2E2" stroke-miterlimit="10"/>
<path d="M-501 218.038C-429.876 223.52 -381.372 295.17 -307.579 280.462C-213.125 261.663 -120.928 216.06 -31.2702 180.696C15.6588 162.183 62.6162 143.444 110.311 127.196C136.763 118.136 165.656 106.464 193.782 105.452C266.495 102.84 324.919 164.342 394.766 176.574C416.662 180.424 439.921 175.471 458.625 187.884C460.782 189.394 460.044 195.932 462.882 198.257C472.021 205.49 490.753 203.965 500.857 203.708" stroke="#E2E2E2" stroke-miterlimit="10"/>
<path d="M-501 122.908C-429.28 128.132 -375.014 193.183 -301.023 179.171C-211.621 162.243 -124.348 119.253 -39.4724 86.1994C25.5356 60.8766 101.712 20.3781 172.169 18.3245C243.705 16.2256 302.356 73.9381 371.706 84.4327C395.433 88.0114 419.955 83.7985 442.49 93.8853C462.996 103.096 477.413 106.373 500.97 106.796" stroke="#E2E2E2" stroke-miterlimit="10"/>
<path d="M-500.972 27.7606C-421.504 27.9267 -344.703 56.4507 -264.979 49.852C-151.013 40.4749 -43.6028 -19.4272 71.1725 -21.1184C143.134 -22.2358 212.385 2.55854 284.035 4.82356C356.024 7.10367 428.781 11.0599 500.856 9.95758" stroke="#E2E2E2" stroke-miterlimit="10"/>
<path d="M316.331 -83.4653C329.103 -23.8955 371.591 14.1265 408.345 58.0678C435.094 90.0346 464.427 128.676 455.558 174.187C436.357 272.534 339.775 345.407 337.291 448.163C335.986 502.327 353.951 559.904 366.013 611.924C379.821 671.479 396.481 731.577 402.91 792.717C407.082 832.808 400.157 861.468 372.243 889.252C343.45 917.942 321.54 934.552 316.076 979.052" stroke="#E2E2E2" stroke-miterlimit="10"/>
<path d="M224.195 -81.5032C246.006 16.6474 416.112 56.6777 393.491 167.271C372.077 271.975 248.589 340.922 248.575 451.666C248.575 508.955 268.527 569.446 281.852 624.29C297.249 687.71 316.109 751.75 323.588 816.876C328.114 856.318 322.239 885.114 288.252 904.955C253.329 925.325 230.411 932.241 223.996 978.946" stroke="#E2E2E2" stroke-miterlimit="10"/>
<path d="M132.747 -79.9479C159.469 11.9361 340.032 22.3099 314.39 134.368C298.425 204.221 248.828 267.747 213.266 327.271C184.884 374.882 148.173 428.261 145.916 486.577C141.361 604.901 164.677 725.294 168.622 843.588C169.473 869.259 173.674 901.256 155.609 921.233C137.544 941.21 133.727 946.903 132.293 979.021" stroke="#E2E2E2" stroke-miterlimit="10"/>
<path d="M41.7716 -78.7394C74.9214 6.3345 266.071 -17.9464 236.697 98.8225C215.41 183.307 160.506 261.269 119.708 335.894C87.9059 394.105 48.8812 456.393 42.396 524.841C31.4407 640.689 15.1497 756.748 7.74206 872.898C6.39394 894.174 1.46974 925.748 19.5914 938.916C22.6992 941.166 28.1059 936.364 32.0367 939.822C40.9485 947.628 39.9694 968.844 40.8492 978.991" stroke="#E2E2E2" stroke-miterlimit="10"/>
<path d="M-48.2121 -77.4087C-14.4522 0.83994 145.152 8.75239 117.168 114.362C96.0374 194.076 52.1736 268.036 16.8811 341.226C-10.5497 398.108 -44.1394 459.007 -50.1705 523.726C-60.0189 630.604 -90.5717 735.127 -96.9292 842.171C-98.5895 870.242 -100.718 898.283 -80.2975 918.714C-60.8136 938.223 -49.3048 946.377 -50.1846 979.114" stroke="#E2E2E2" stroke-miterlimit="10"/>
</svg>
